<svg width="1033" height="211" viewBox="0 0 1033 211" fill="none" xmlns="http://www.w3.org/2000/svg">
<path fill-rule="evenodd" clip-rule="evenodd" d="M0 76.2241H16.8424C35.0883 76.2241 68.7731 76.2241 103.861 106.252C137.546 136.279 172.635 195.18 206.319 207.884C241.408 221.743 275.092 187.095 310.181 148.983C343.865 110.871 378.954 68.1397 412.639 76.2241C447.727 85.4633 481.412 144.364 516.5 148.983C551.588 153.603 585.273 101.632 620.361 93.5477C654.046 85.4633 689.135 118.956 722.819 148.983C757.908 179.011 791.592 204.419 826.681 182.476C860.365 161.687 895.454 93.5477 929.139 63.52C964.227 33.4924 997.912 42.7317 1016.16 47.3513L1033 50.816V0H1016.16C997.912 0 964.227 0 929.139 0C895.454 0 860.365 0 826.681 0C791.592 0 757.908 0 722.819 0C689.135 0 654.046 0 620.361 0C585.273 0 551.588 0 516.5 0C481.412 0 447.727 0 412.639 0C378.954 0 343.865 0 310.181 0C275.092 0 241.408 0 206.319 0C172.635 0 137.546 0 103.861 0C68.7731 0 35.0883 0 16.8424 0H0V76.2241Z" fill="#641D29"/>
</svg>
