<svg width="241" height="736" viewBox="0 0 241 736" fill="none" xmlns="http://www.w3.org/2000/svg">
<path fill-rule="evenodd" clip-rule="evenodd" d="M150.15 736L159.235 726.23C168.32 716.46 191.032 693.664 163.777 674.124C136.522 654.584 63.8423 635.044 50.2148 612.248C36.5872 592.708 77.4698 573.168 77.4698 550.372C77.4698 530.832 36.5872 511.292 45.6723 491.752C54.7573 468.956 118.352 449.416 136.522 429.876C159.235 410.336 136.522 387.54 95.6398 368C54.7573 348.46 -4.2953 325.664 0.247192 306.124C4.7897 286.584 77.4698 267.044 109.267 244.248C136.522 224.708 127.437 205.168 109.267 182.372C86.5548 162.832 54.7573 143.292 36.5872 123.752C13.8747 100.956 4.7897 81.416 22.9597 61.8761C45.6723 42.3363 95.6398 19.5399 122.895 9.7699L150.15 0H241V9.7699C241 19.5399 241 42.3363 241 61.8761C241 81.416 241 100.956 241 123.752C241 143.292 241 162.832 241 182.372C241 205.168 241 224.708 241 244.248C241 267.044 241 286.584 241 306.124C241 325.664 241 348.46 241 368C241 387.54 241 410.336 241 429.876C241 449.416 241 468.956 241 491.752C241 511.292 241 530.832 241 550.372C241 573.168 241 592.708 241 612.248C241 635.044 241 654.584 241 674.124C241 693.664 241 716.46 241 726.23V736H150.15Z" fill="#641D29"/>
</svg>
