<svg width="1553" height="180" viewBox="0 0 1553 180" fill="none" xmlns="http://www.w3.org/2000/svg">
<path fill-rule="evenodd" clip-rule="evenodd" d="M0 65.0253H25.3207C52.7514 65.0253 103.393 65.0253 156.144 90.6413C206.785 116.257 259.537 166.504 310.178 177.342C362.929 189.164 413.571 159.607 466.322 127.095C516.963 94.5822 569.715 58.1286 620.356 65.0253C673.107 72.9071 723.749 123.154 776.5 127.095C829.251 131.036 879.893 86.7003 932.644 79.8037C983.285 72.9071 1036.04 101.479 1086.68 127.095C1139.43 152.711 1190.07 174.386 1242.82 155.667C1293.46 137.932 1346.21 79.8037 1396.86 54.1877C1449.61 28.5717 1500.25 36.4536 1527.68 40.3945L1553 43.3502V0H1527.68C1500.25 0 1449.61 0 1396.86 0C1346.21 0 1293.46 0 1242.82 0C1190.07 0 1139.43 0 1086.68 0C1036.04 0 983.285 0 932.644 0C879.893 0 829.251 0 776.5 0C723.749 0 673.107 0 620.356 0C569.715 0 516.963 0 466.322 0C413.571 0 362.929 0 310.178 0C259.537 0 206.785 0 156.144 0C103.393 0 52.7514 0 25.3207 0H0V65.0253Z" fill="#641D29"/>
</svg>
