<svg width="284" height="736" viewBox="0 0 284 736" fill="none" xmlns="http://www.w3.org/2000/svg">
<path fill-rule="evenodd" clip-rule="evenodd" d="M107.06 736L96.3539 726.23C85.6479 716.46 58.8829 693.664 91.0009 674.124C123.119 654.584 208.767 635.044 224.826 612.248C240.885 592.708 192.708 573.168 192.708 550.372C192.708 530.832 240.885 511.292 230.179 491.752C219.473 468.956 144.531 449.416 123.119 429.876C96.3539 410.336 123.119 387.54 171.296 368C219.473 348.46 289.062 325.664 283.709 306.124C278.356 286.584 192.708 267.044 155.237 244.248C123.119 224.708 133.825 205.168 155.237 182.372C182.002 162.832 219.473 143.292 240.885 123.752C267.65 100.956 278.356 81.416 256.944 61.8761C230.179 42.3363 171.296 19.5399 139.178 9.7699L107.06 0H0L0 9.7699C0 19.5399 0 42.3363 0 61.8761C0 81.416 0 100.956 0 123.752C0 143.292 0 162.832 0 182.372C0 205.168 0 224.708 0 244.248C0 267.044 0 286.584 0 306.124C0 325.664 0 348.46 0 368C0 387.54 0 410.336 0 429.876C0 449.416 0 468.956 0 491.752C0 511.292 0 530.832 0 550.372C0 573.168 0 592.708 0 612.248C0 635.044 0 654.584 0 674.124C0 693.664 0 716.46 0 726.23L0 736H107.06Z" fill="#641D29"/>
</svg>
