<svg width="1033" height="180" viewBox="0 0 1033 180" fill="none" xmlns="http://www.w3.org/2000/svg">
<path fill-rule="evenodd" clip-rule="evenodd" d="M0 65.0253H16.8424C35.0883 65.0253 68.7731 65.0253 103.861 90.6413C137.546 116.257 172.635 166.504 206.319 177.342C241.408 189.164 275.092 159.607 310.181 127.095C343.865 94.5822 378.954 58.1286 412.639 65.0253C447.727 72.9071 481.412 123.154 516.5 127.095C551.588 131.036 585.273 86.7003 620.361 79.8037C654.046 72.9071 689.135 101.479 722.819 127.095C757.908 152.711 791.592 174.386 826.681 155.667C860.365 137.932 895.454 79.8037 929.139 54.1877C964.227 28.5717 997.912 36.4536 1016.16 40.3945L1033 43.3502V0H1016.16C997.912 0 964.227 0 929.139 0C895.454 0 860.365 0 826.681 0C791.592 0 757.908 0 722.819 0C689.135 0 654.046 0 620.361 0C585.273 0 551.588 0 516.5 0C481.412 0 447.727 0 412.639 0C378.954 0 343.865 0 310.181 0C275.092 0 241.408 0 206.319 0C172.635 0 137.546 0 103.861 0C68.7731 0 35.0883 0 16.8424 0H0V65.0253Z" fill="#641D29"/>
</svg>
